<?xml version="1.0" encoding="UTF-8" standalone="no"?>
<svg width="1024" height="1024" viewBox="0 0 1024 1024" version="1.1" xmlns="http://www.w3.org/2000/svg" xmlns:xlink="http://www.w3.org/1999/xlink" preserveAspectRatio="xMidYMid">
  <g fill="#dc1338">
  	<path class="path1" fill="#fdc948" d="M996.693 720.213c0 3.413-3.413 6.827-6.827 6.827h-955.733c-3.413 0-6.827-3.413-6.827-6.827v-416.427c0-3.413 3.413-6.827 6.827-6.827h955.733c3.413 0 6.827 3.413 6.827 6.827v416.427z"></path>
  	<path class="path2" d="M197.973 440.32l-30.72 40.96c0 0 160.427 0 167.253 0 10.24 0 6.827 3.413 3.413 10.24s-10.24 17.067-17.067 20.48c-3.413 3.413-6.827 6.827 6.827 6.827s68.267 0 68.267 0 10.24-13.653 20.48-27.307c13.653-17.067 0-54.613-44.373-54.613-34.133 3.413-174.080 3.413-174.080 3.413v0z"></path>
  	<path class="path3" d="M153.6 576.853l61.44-85.333c0 0 68.267 0 78.507 0s6.827 3.413 3.413 10.24c-3.413 6.827-10.24 17.067-17.067 20.48-3.413 3.413-6.827 6.827 6.827 6.827s102.4 0 102.4 0c-10.24 10.24-37.547 44.373-85.333 44.373-37.547 3.413-150.187 3.413-150.187 3.413v0z"></path>
  	<path class="path4" d="M512 529.067l-34.133 44.373h-88.747l34.133-44.373h88.747z"></path>
  	<path class="path5" d="M645.12 518.827h-215.040l58.027-78.507h88.747l-34.133 44.373h40.96l34.133-44.373h88.747z"></path>
  	<path class="path6" d="M638.293 529.067l-34.133 44.373h-88.747l34.133-44.373h88.747z"></path>
  	<path class="path7" d="M27.307 546.133h133.12l-6.827 10.24h-126.293z"></path>
  	<path class="path8" d="M27.307 529.067h146.773l-6.827 10.24h-139.947z"></path>
  	<path class="path9" d="M27.307 566.613h119.467l-6.827 10.24h-112.64z"></path>
  	<path class="path10" d="M996.693 556.373h-133.12l6.827-10.24h126.293z"></path>
  	<path class="path11" d="M996.693 576.853h-143.36l6.827-10.24h136.533z"></path>
  	<path class="path12" d="M884.053 529.067h112.64v10.24h-119.467z"></path>
  	<path class="path13" d="M829.44 440.32l-58.027 81.92h-95.573l58.027-81.92h95.573z"></path>
  	<path class="path14" d="M669.013 529.067c0 0-6.827 10.24-10.24 13.653-10.24 13.653 0 34.133 34.133 34.133 40.96 0 143.36 0 143.36 0l34.133-44.373-201.387-3.413z"></path>
  </g>
</svg>
