<?xml version="1.0" encoding="UTF-8" standalone="no"?>
<svg width="1024" height="1024" viewBox="0 0 1024 1024" version="1.1" xmlns="http://www.w3.org/2000/svg" xmlns:xlink="http://www.w3.org/1999/xlink" preserveAspectRatio="xMidYMid">
  <g>
    <path class="path1" fill="#5d2784" d="M525.653 365.227v116.053c-10.24-17.067-40.96-23.893-61.44-23.893-34.133 0-71.68 27.307-81.92 64.853-13.653-44.373-51.2-68.267-98.987-68.267-40.96 0-71.68 17.067-92.16 47.787v-37.547h-88.747v-40.96h92.16v-61.44h-170.667v286.72h78.507v-119.467h75.093c-3.413 10.24-3.413 20.48-3.413 30.72 0 58.027 47.787 98.987 105.813 98.987 30.72 0 51.2-10.24 71.68-27.307 10.24-10.24 20.48-23.893 23.893-37.547h-61.44c-6.827 13.653-20.48 13.653-30.72 13.653-30.72 0-40.96-20.48-40.96-37.547h133.12c6.827 51.2 40.96 88.747 88.747 88.747 27.307 0 40.96-6.827 58.027-30.72v20.48h64.853v-286.72l-61.44 3.413zM245.76 532.48c3.413-20.48 20.48-30.72 37.547-30.72s34.133 13.653 34.133 30.72h-71.68zM484.693 607.573c-23.893 0-40.96-17.067-40.96-51.2 0-23.893 13.653-44.373 40.96-44.373 23.893 0 40.96 20.48 40.96 44.373-3.413 34.133-17.067 51.2-40.96 51.2z"></path>
    <path class="path2" fill="#ec671d" d="M918.187 559.787l78.507-88.747h-78.507l-40.96 40.96-40.96-44.373h-177.493v-40.96h92.16v-64.853h-163.84v286.72h245.76l37.547-44.373 40.96 44.373h81.92l-75.093-88.747zM750.933 651.947v-61.44h-92.16v-58.027h92.16v-61.44l81.92 88.747-81.92 92.16z"></path>
  </g>
</svg>
