<?xml version="1.0" encoding="UTF-8" standalone="no"?>
<svg width="128" height="128" viewBox="0 0 128 128" version="1.1" xmlns="http://www.w3.org/2000/svg" xmlns:xlink="http://www.w3.org/1999/xlink" preserveAspectRatio="xMidYMid">
  <path fill="#b4b4b5" d="M111.37,33.52v16h-15v-16H81.81V55.25c-1-2.27-6.38-7.31-13.39-7.31-11.43,0-18.84,7-18.84,21.11,0,12,5.87,21.83,17.81,21.83,6.38,0,9.89-1.34,12.25-4.84v2.47c0,2.27.1,4.22,0,5.77,7.21-4.84,14.11-12,16.78-22.24V62.46h15v17.2H126V33.52ZM73.58,78.83c-4,0-7.31-4.32-7.31-9.58s3.3-9.58,7.31-9.58,7.31,4.32,7.31,9.58S77.59,78.83,73.58,78.83Z"/>
  <path fill="#b4b4b5" d="M71.93,98.6a4.82,4.82,0,0,1-3.3-3.71H52c.21,2.47,2.27,5.87,5.66,8.75h.1A73.5,73.5,0,0,0,71.93,98.6Z"/>
  <path fill="#3f63aa" d="M63.18,104.88c-1.13.21-2.27.31-3.3.51A22.69,22.69,0,0,0,71.83,109c19.15,0,24.41-7.31,24.41-22.86C92.83,90.05,80.89,102.2,63.18,104.88Z"/>
  <path fill="#3f63aa" d="M19.1,61.94c1,5.25,4.74,7.52,10.4,7.52,5.35,0,7.72-2,7.72-5.35,0-3.91-2.57-5.35-12-7.62C7.36,52.05,3.86,45.67,3.86,37.54,3.86,27.44,11.28,19,28,19c17.3,0,24.41,8.86,25.23,18.23h-17c-.41-3.19-2.06-6.49-8.34-6.49-4,0-6.49,1.44-6.49,4.74S23.53,40,32.8,42.27C51.23,46.91,54.94,53.6,54.94,62.15c0,11.22-8.65,19.05-26.26,19.05C12.1,81.2,3.35,73.47,2,61.94Z"/>
</svg>
