<?xml version="1.0" encoding="UTF-8" standalone="no"?>
<svg width="1024" height="1024" viewBox="0 0 1024 1024" version="1.1" xmlns="http://www.w3.org/2000/svg" xmlns:xlink="http://www.w3.org/1999/xlink" preserveAspectRatio="xMidYMid">
  <g>
  	<path class="path1" fill="#fbbb46" d="M512 996.693c-23.893-10.24-232.107-102.4-300.373-157.013-71.68-58.027-109.227-139.947-109.227-242.347v-481.28c112.64-61.44 249.173-92.16 409.6-92.16s293.547 30.72 409.6 92.16v481.28c0 102.4-37.547 184.32-109.227 245.76-68.267 54.613-276.48 143.36-300.373 153.6z"></path>
  	<path class="path2" fill="#35190f" d="M139.947 597.333c0 88.747 34.133 163.84 95.573 215.040 54.613 44.373 225.28 122.88 273.067 143.36 47.787-20.48 218.453-95.573 273.067-143.36 64.853-51.2 95.573-126.293 95.573-215.040v-471.040c-238.933-20.48-518.827-6.827-740.693 194.56v276.48h3.413zM177.493 570.027v-221.867h71.68v225.28c0 20.48 3.413 51.2 37.547 51.2 13.653 0 27.307-3.413 34.133-10.24v-266.24h71.68v307.2c-30.72 17.067-64.853 27.307-109.227 27.307-71.68 0-105.813-37.547-105.813-112.64zM498.347 826.027h-71.68v-464.213c23.893-17.067 58.027-23.893 95.573-23.893 85.333 0 133.12 64.853 133.12 167.253s-44.373 174.080-122.88 174.080c-13.653 0-23.893-3.413-30.72-3.413v150.187zM498.347 399.36c6.827-3.413 17.067-6.827 23.893-6.827 40.96 0 58.027 34.133 58.027 112.64s-20.48 116.053-61.44 116.053c-10.24 0-17.067-3.413-23.893-3.413v-218.453zM669.013 430.080c0-58.027 47.787-92.16 95.573-92.16 37.547 0 64.853 13.653 78.507 23.893v61.44c-13.653-13.653-37.547-27.307-64.853-30.72-20.48 0-40.96 10.24-40.96 34.133 0 27.307 20.48 37.547 47.787 51.2 58.027 34.133 71.68 64.853 68.267 109.227 0 44.373-34.133 95.573-102.4 95.573-27.307 0-54.613-10.24-78.507-20.48v-64.853c17.067 17.067 44.373 27.307 68.267 27.307 27.307 0 44.373-13.653 44.373-40.96 0-23.893-13.653-34.133-44.373-51.2-61.44-34.133-71.68-64.853-71.68-102.4z"></path>
  </g>
</svg>
