<?xml version="1.0" encoding="UTF-8" standalone="no"?>
<svg width="1024" height="1024" viewBox="0 0 1024 1024" version="1.1" xmlns="http://www.w3.org/2000/svg" xmlns:xlink="http://www.w3.org/1999/xlink" preserveAspectRatio="xMidYMid">
  <g fill="#231f20">
  	<path class="path1" fill="#fcc70a" d="M1001.366 510.843c0 178.475-216.72 325.079-490.806 325.079s-490.806-146.604-490.806-325.079c0-178.475 216.72-325.079 490.806-325.079s490.806 146.604 490.806 325.079z"></path>
  	<path class="path2" d="M511.873 187.555c-108.36 0-203.971 19.122-286.835 57.367l6.374 12.748c76.489-38.245 172.101-57.367 280.461-57.367 152.979 0 286.835 44.619 376.072 121.108l12.748-12.748c-95.612-76.489-235.842-121.108-388.82-121.108z"></path>
  	<path class="path3" d="M957.295 405.052c19.122 31.871 25.496 70.115 25.496 101.986 0 172.101-210.345 312.331-471.684 312.331s-471.684-140.23-471.684-312.331c0-63.741 25.496-121.108 76.489-172.101l-12.748-12.748c-50.993 50.993-82.863 114.734-82.863 184.849 0 178.475 216.72 325.079 490.806 325.079s490.806-146.604 490.806-325.079c0-38.245-12.748-76.489-31.871-114.734l-12.748 12.748z"></path>
  	<path class="path4" d="M459.752 742.542l44.619-12.748-25.496-114.734-70.115 57.367 50.993 70.115z"></path>
  	<path class="path5" d="M477.459 239.35l-114.734 76.489h-127.482l-95.612-70.115c0 0-6.374 50.993 19.122 114.734 19.122 57.367 50.993 76.489 50.993 76.489h70.115l89.237-38.245v12.748c0 25.496-6.374 50.993-19.122 70.115 6.374 0 19.122 0 50.993-19.122 38.245-25.496 50.993-70.115 63.741-114.734s12.748-108.36 12.748-108.36zM273.488 379.58c0 6.374-12.748 6.374-12.748 6.374-12.748-6.374-31.871-6.374-38.245-6.374s-12.748 0-12.748-6.374c0-6.374 0-12.748 6.374-12.748 19.122 0 38.245 0 57.367 12.748 6.374-6.374 6.374 0 0 6.374zM394.596 366.832c0 6.374-6.374 12.748-12.748 6.374-12.748 0-31.871 0-44.619 6.374-6.374 6.374-12.748 0-12.748-6.374s0-12.748 6.374-12.748c12.748-6.374 38.245-12.748 57.367-12.748 6.374 6.374 12.748 12.748 6.374 19.122z"></path>
  	<path class="path6" d="M963.9 364.302l-12.748-31.871-229.468 82.863h-267.712c-6.374 19.122-19.122 38.245-44.619 50.993-12.748 6.374-25.496 12.748-31.871 19.122-6.374 0-19.122 6.374-25.496 6.374 0 6.374-6.374 12.748-6.374 12.748-19.122 31.871-57.367 44.619-95.612 44.619-25.496 0-44.619-6.374-63.741-19.122l-19.122 6.374v19.122l31.871 6.374-19.122 6.374v19.122l38.245 12.748v38.245l-31.871 38.245 12.748 12.748 12.748-6.374-6.374 12.748 12.748 12.748 76.489-38.245-38.245 50.993 44.619 25.496 172.101-152.979h95.612l-38.245 127.482 38.245 19.122 95.612-114.734 114.734 101.986 38.245-19.122-70.115-223.094 216.72-121.108zM320.115 632.014v-82.863l25.496 38.245-25.496 44.619z"></path>
  	<path class="path7" d="M287.568 444.055h-82.863l-76.489-50.993c0 82.863 50.993 146.604 114.734 146.604 31.871 0 63.741-12.748 82.863-44.619 19.122-25.496 25.496-57.367 25.496-89.237l-63.741 38.245zM230.201 495.048c0 6.374-6.374 6.374-12.748 0s-19.122-6.374-25.496-6.374c-6.374 0-6.374-6.374-6.374-6.374 0-6.374 0-6.374 6.374-6.374s25.496 0 31.871 6.374c6.374 0 12.748 6.374 6.374 12.748zM300.316 488.673c-6.374 0-19.122 0-25.496 6.374-6.374 0-6.374 0-12.748 0 0-6.374 0-6.374 0-12.748 12.748-6.374 31.871-6.374 38.245-6.374s6.374 6.374 6.374 6.374 0 6.374-6.374 6.374z"></path>
  </g>
</svg>
