<?xml version="1.0" encoding="UTF-8" standalone="no"?>
<svg width="32" height="32" viewBox="0 0 32 32" version="1.1" xmlns="http://www.w3.org/2000/svg" xmlns:xlink="http://www.w3.org/1999/xlink" preserveAspectRatio="xMidYMid">
  <g fill="#c4153a">
  <path fill="#c4153a" d="M32 16c0 8.837-7.163 16-16 16s-16-7.163-16-16c0-8.837 7.163-16 16-16s16 7.163 16 16z"></path>
  <path fill="#fff" d="M23.040 21.12h-0.853l0.107-0.533h2.347l-0.107 0.533h-0.747l-0.427 2.133h-0.747l0.427-2.133z"></path>
  <path fill="#fff" d="M18.88 21.227c-0.107-0.107-0.32-0.107-0.533-0.107s-0.533 0-0.533 0.213c0 0.32 0.96 0.213 0.96 1.067 0 0.747-0.64 0.96-1.28 0.96-0.32 0-0.533-0.107-0.747-0.107l0.107-0.533c0.107 0.107 0.427 0.107 0.64 0.107s0.533 0 0.533-0.32c0-0.427-0.96-0.32-0.96-0.96s0.533-0.853 1.173-0.853c0.32 0 0.64 0 0.747 0.107l-0.107 0.427z"></path>
  <path fill="#fff" d="M12.48 21.12c-0.533 0-0.747 0.64-0.747 1.067 0 0.32 0.107 0.64 0.533 0.64 0.533 0 0.747-0.64 0.747-1.067s-0.107-0.64-0.533-0.64zM12.267 23.253c-0.853 0-1.173-0.533-1.173-1.067 0-0.96 0.533-1.6 1.493-1.6 0.853 0 1.173 0.533 1.173 1.067 0 0.96-0.533 1.6-1.493 1.6z"></path>
  <path fill="#fff" d="M6.613 21.76h0.213c0.32 0 0.533-0.107 0.533-0.427 0-0.213-0.213-0.32-0.32-0.32h-0.213l-0.213 0.747zM6.187 20.587h0.747c0.533 0 1.173 0.107 1.173 0.747s-0.533 0.96-1.173 0.96h-0.427l-0.107 0.853h-0.747l0.533-2.56z"></path>
  <path fill="#fff" d="M24.107 11.733c-0.107 0.96-0.853 1.387-2.133 1.387h-1.707l0.533-2.667h1.707c1.387-0.107 1.707 0.533 1.6 1.28v0zM23.36 8.747h-4.587l-1.387 6.613c-0.533 2.24-1.92 2.88-3.733 2.88-1.6 0-3.093-0.853-2.667-2.88 0.107-0.427 0.107-0.64 0.213-0.96h2.027c0 0.213-0.107 0.533-0.213 0.96-0.107 0.747 0.107 1.173 0.96 1.173 0.747 0 1.173-0.427 1.28-1.173l1.387-6.613h-4.8c-2.56 0-3.307 0.64-3.84 2.88l-1.493 7.36h9.28c2.24 0 3.52-1.28 3.84-2.88 0.32-1.493 0.32-1.493 0.32-1.493h2.24c2.347 0 3.627-0.96 3.947-2.88 0.427-1.813-0.853-2.987-2.773-2.987z"></path>
  </g>
</svg>
