<?xml version="1.0" encoding="UTF-8" standalone="no"?>
<svg width="1024" height="1024" viewBox="0 0 1024 1024" version="1.1" xmlns="http://www.w3.org/2000/svg" xmlns:xlink="http://www.w3.org/1999/xlink" preserveAspectRatio="xMidYMid">
  <g fill="#c4153a">
    <path class="path1" d="M846.507 757.76h-40.96l6.827-23.893h109.227l-6.827 23.893h-37.547l-20.48 98.987h-34.133l23.893-98.987z"></path>
    <path class="path2" d="M651.947 761.173c-6.827-3.413-13.653-6.827-27.307-6.827s-23.893 3.413-23.893 10.24c0 17.067 47.787 10.24 47.787 47.787 0 34.133-30.72 44.373-61.44 44.373-13.653 0-27.307-3.413-37.547-6.827l6.827-23.893c6.827 3.413 20.48 6.827 30.72 6.827s27.307-3.413 27.307-13.653c0-20.48-47.787-13.653-47.787-47.787 0-30.72 27.307-40.96 54.613-40.96 17.067 0 30.72 3.413 37.547 6.827l-6.827 23.893z"></path>
    <path class="path3" d="M344.747 754.347c-27.307 0-37.547 30.72-37.547 51.2 0 17.067 6.827 27.307 23.893 27.307 27.307 0 37.547-30.72 37.547-51.2 0-13.653-6.827-27.307-23.893-27.307zM331.093 856.747c-40.96 0-54.613-23.893-54.613-51.2 0-47.787 23.893-78.507 71.68-78.507 40.96 0 54.613 23.893 54.613 51.2 0 51.2-23.893 78.507-71.68 78.507z"></path>
    <path class="path4" d="M64.853 788.48h10.24c13.653 0 23.893-3.413 23.893-20.48 0-10.24-6.827-13.653-17.067-13.653h-10.24l-6.827 34.133zM44.373 733.867h34.133c27.307 0 54.613 3.413 54.613 34.133s-23.893 44.373-54.613 44.373h-17.067l-10.24 44.373h-30.72l23.893-122.88z"></path>
    <path class="path5" d="M901.12 307.2c-6.827 44.373-40.96 64.853-102.4 64.853h-78.507l27.307-129.707h81.92c61.44 0 78.507 27.307 71.68 64.853v0zM863.573 163.84h-218.453l-64.853 314.027c-23.893 109.227-92.16 136.533-177.493 136.533-75.093 0-146.773-40.96-129.707-136.533 3.413-20.48 6.827-27.307 10.24-47.787h98.987c-3.413 10.24-6.827 23.893-10.24 47.787-6.827 34.133 6.827 54.613 44.373 54.613s58.027-20.48 61.44-54.613l64.853-314.027h-228.693c-122.88 0-160.427 30.72-180.907 139.947l-71.68 354.987h443.733c109.227 0 167.253-61.44 184.32-139.947 13.653-71.68 13.653-71.68 13.653-71.68h109.227c109.227 0 174.080-44.373 191.147-139.947 13.653-88.747-47.787-143.36-139.947-143.36z"></path>
  </g>
</svg>
