<?xml version="1.0" encoding="utf-8"?>
<!-- Generator: Adobe Illustrator 18.1.1, SVG Export Plug-In . SVG Version: 6.00 Build 0)  -->
<svg version="1.1" xmlns="http://www.w3.org/2000/svg" xmlns:xlink="http://www.w3.org/1999/xlink" x="0px" y="0px"
	 viewBox="-669 -20 100 100" enable-background="new -669 -20 100 100" xml:space="preserve">
<g id="Calque_1">
	<g>
		<path fill="#F3F4F4" d="M-573.5,52.8c0,4.2-3.4,7.6-7.6,7.6h-75.8c-4.2,0-7.6-3.4-7.6-7.6V7.2c0-4.2,3.4-7.6,7.6-7.6h75.8
			c4.2,0,7.6,3.4,7.6,7.6V52.8z"/>
		<path fill="#5565AF" d="M-663,14.8V7.2c0-4.2,3.4-7,7.6-7h72.8c4.2,0,7.6,2.8,7.6,7v7.6"/>
		<path fill="#E6A124" d="M-575,45.2v7.6c0,4.2-3.4,6.1-7.6,6.1h-72.8c-4.2,0-7.6-1.9-7.6-6.1v-7.6"/>
		<g>
			<path fill="#5565AF" d="M-638.1,35.1c0.6-1.7,1-2.9,1.3-3.4l5.1-10.4h3.7l-8.9,17.3h-4l-1.5-17.3h3.5l0.6,10.4c0,0.4,0,0.9,0,1.6
				C-638.2,34.2-638.2,34.8-638.1,35.1L-638.1,35.1z"/>
			<path fill="#5565AF" d="M-629.5,38.7l3.7-17.3h3.6l-3.7,17.3H-629.5z"/>
			<path fill="#5565AF" d="M-611.1,33.5c0,1.7-0.6,3-1.8,3.9c-1.2,1-2.8,1.4-4.8,1.4c-1.7,0-3.2-0.4-4.2-1.1v-3.2
				c1.5,0.9,2.9,1.3,4.2,1.3c0.9,0,1.6-0.2,2.1-0.5c0.5-0.3,0.7-0.8,0.7-1.4c0-0.3-0.1-0.6-0.2-0.9c-0.1-0.3-0.3-0.5-0.5-0.7
				c-0.2-0.2-0.7-0.6-1.5-1.2c-1.1-0.8-1.9-1.6-2.3-2.3c-0.4-0.8-0.7-1.6-0.7-2.5c0-1,0.2-1.9,0.7-2.7c0.5-0.8,1.2-1.4,2.1-1.9
				c0.9-0.4,1.9-0.7,3.1-0.7c1.7,0,3.3,0.4,4.7,1.2l-1.3,2.8c-1.2-0.6-2.4-0.9-3.4-0.9c-0.7,0-1.2,0.2-1.6,0.5
				c-0.4,0.4-0.6,0.8-0.6,1.4c0,0.5,0.1,0.9,0.4,1.3c0.3,0.4,0.8,0.8,1.8,1.4c1,0.6,1.7,1.3,2.1,2.1
				C-611.4,31.6-611.1,32.5-611.1,33.5z"/>
			<path fill="#5565AF" d="M-599.5,34.5h-5.6l-2,4.1h-3.8l9.1-17.4h4.4l1.7,17.4h-3.5L-599.5,34.5z M-599.7,31.5l-0.3-4.1
				c-0.1-1-0.1-2-0.1-3v-0.4c-0.3,0.9-0.8,2-1.3,3l-2.2,4.6H-599.7z"/>
		</g>
		<path fill="#FFFFFF" d="M-619-0.3"/>
		<path opacity="4.000000e-02" fill="#FFFFFF" enable-background="new    " d="M-575.7,1.9c1.4,1.4,2.2,3.3,2.2,5.4V30v22.8
			c0,2.1-0.9,4-2.2,5.4c-1.4,1.4-3.3,2.2-5.4,2.2H-619h-37.9c-2.1,0-4-0.9-5.4-2.2L-575.7,1.9z"/>
		<g>
			<path fill="#F8F8F9" d="M-581.1,1.2c3.3,0,6.1,2.7,6.1,6.1v45.5c0,3.3-2.7,6.1-6.1,6.1h-75.8c-3.3,0-6.1-2.7-6.1-6.1V7.2
				c0-3.3,2.7-6.1,6.1-6.1H-581.1 M-581.1-0.3h-75.8c-4.2,0-7.6,3.4-7.6,7.6v45.5c0,4.2,3.4,7.6,7.6,7.6h75.8c4.2,0,7.6-3.4,7.6-7.6
				V7.2C-573.5,3.1-576.9-0.3-581.1-0.3L-581.1-0.3z"/>
		</g>
	</g>
</g>
<g id="Calque_2" display="none">
	<g display="inline">
		<g>
			<path fill="#5EC1EC" d="M-573.5,52.8c0,4.2-3.4,7.6-7.6,7.6h-75.8c-4.2,0-7.6-3.4-7.6-7.6V7.2c0-4.2,3.4-7.6,7.6-7.6h75.8
				c4.2,0,7.6,3.4,7.6,7.6V52.8z"/>
			<path fill="#5BBBE6" d="M-575.7,1.9c1.4,1.4,2.2,3.3,2.2,5.4V30v22.8c0,2.1-0.9,4-2.2,5.4c-1.4,1.4-3.3,2.2-5.4,2.2H-619h-37.9
				c-2.1,0-4-0.9-5.4-2.2L-575.7,1.9z"/>
			<g>
				<path fill="#FFFFFF" d="M-637.9,37.5l-0.7-2.6h-4.6l-0.7,2.6h-4.2l4.6-14.1h5.1l4.6,14.1H-637.9z M-639.4,31.7l-0.6-2.3
					c-0.1-0.5-0.3-1.2-0.5-2c-0.2-0.8-0.3-1.4-0.4-1.8c-0.1,0.3-0.2,0.9-0.3,1.6c-0.2,0.8-0.5,2.2-1.1,4.4L-639.4,31.7L-639.4,31.7z
					"/>
				<path fill="#FFFFFF" d="M-626.1,37.5l-2.9-10.1h-0.1c0.1,1.7,0.2,3.1,0.2,4v6.1h-3.4V23.4h5.1l2.9,10h0.1l2.9-10h5.1v14.1h-3.5
					v-6.2c0-0.3,0-0.7,0-1.1c0-0.4,0.1-1.4,0.1-2.9h-0.1l-2.8,10.1L-626.1,37.5L-626.1,37.5z"/>
				<path fill="#FFFFFF" d="M-605.2,37.5h-8.4V23.4h8.4v3.1h-4.6v2.2h4.2v3.1h-4.2v2.7h4.6V37.5z"/>
				<path fill="#FFFFFF" d="M-590,37.5h-4.4l-2.7-4.4l-2.7,4.4h-4.3l4.7-7.2l-4.4-6.9h4.2l2.5,4.4l2.4-4.4h4.3l-4.5,7.2L-590,37.5z"
					/>
			</g>
			<g>
				<path fill="#FFFFFF" d="M-637.9,37.5l-0.7-2.6h-4.6l-0.7,2.6h-4.2l4.6-14.1h5.1l4.6,14.1H-637.9z M-639.4,31.7l-0.6-2.3
					c-0.1-0.5-0.3-1.2-0.5-2c-0.2-0.8-0.3-1.4-0.4-1.8c-0.1,0.3-0.2,0.9-0.3,1.6c-0.2,0.8-0.5,2.2-1.1,4.4L-639.4,31.7L-639.4,31.7z
					"/>
				<path fill="#FFFFFF" d="M-626.1,37.5l-2.9-10.1h-0.1c0.1,1.7,0.2,3.1,0.2,4v6.1h-3.4V23.4h5.1l2.9,10h0.1l2.9-10h5.1v14.1h-3.5
					v-6.2c0-0.3,0-0.7,0-1.1c0-0.4,0.1-1.4,0.1-2.9h-0.1l-2.8,10.1L-626.1,37.5L-626.1,37.5z"/>
				<path fill="#FFFFFF" d="M-605.2,37.5h-8.4V23.4h8.4v3.1h-4.6v2.2h4.2v3.1h-4.2v2.7h4.6V37.5z"/>
				<path fill="#FFFFFF" d="M-590,37.5h-4.4l-2.7-4.4l-2.7,4.4h-4.3l4.7-7.2l-4.4-6.9h4.2l2.5,4.4l2.4-4.4h4.3l-4.5,7.2L-590,37.5z"
					/>
			</g>
			<path fill="#56B1D9" d="M-619-0.3"/>
		</g>
		<g>
			<path fill="#9BCEE0" d="M-581.1,1.2c3.3,0,6.1,2.7,6.1,6.1v45.5c0,3.3-2.7,6.1-6.1,6.1h-75.8c-3.3,0-6.1-2.7-6.1-6.1V7.2
				c0-3.3,2.7-6.1,6.1-6.1H-581.1 M-581.1-0.3h-75.8c-4.2,0-7.6,3.4-7.6,7.6v45.5c0,4.2,3.4,7.6,7.6,7.6h75.8c4.2,0,7.6-3.4,7.6-7.6
				V7.2C-573.5,3.1-576.9-0.3-581.1-0.3L-581.1-0.3z"/>
		</g>
	</g>
</g>
<g id="Calque_3" display="none">
	<g display="inline">
		<path fill="#5565AF" d="M-573.5,52.8c0,4.2-3.4,7.6-7.6,7.6h-75.8c-4.2,0-7.6-3.4-7.6-7.6V7.2c0-4.2,3.4-7.6,7.6-7.6h75.8
			c4.2,0,7.6,3.4,7.6,7.6V52.8z"/>
		<path opacity="4.000000e-02" fill="#FFFFFF" enable-background="new    " d="M-575.7,1.9c1.4,1.4,2.2,3.3,2.2,5.4V30v22.8
			c0,2.1-0.9,4-2.2,5.4c-1.4,1.4-3.3,2.2-5.4,2.2H-619h-37.9c-2.1,0-4-0.9-5.4-2.2L-575.7,1.9z"/>
		<path fill="#56B1D9" d="M-619-0.3"/>
		<g>
			<path fill="#EA564B" d="M-619,20c-2.8-3.2-6.8-5.2-11.4-5.2c-8.4,0-15.2,6.8-15.2,15.2c0,8.4,6.8,15.2,15.2,15.2
				c4.5,0,8.6-2,11.4-5.2c-2.4-2.7-3.8-6.2-3.8-10S-621.4,22.7-619,20z"/>
			<path fill="#EA564B" d="M-619,20c-2.4,2.7-3.8,6.2-3.8,10s1.4,7.3,3.8,10c2.4-2.7,3.8-6.2,3.8-10S-616.6,22.7-619,20z"/>
		</g>
		<path fill="#E9D419" d="M-607.6,14.8c-4.5,0-8.6,2-11.4,5.2c-0.7,0.7-1.2,1.6-1.7,2.4h3.5c0.6,0.9,1,2,1.3,3h-6.1
			c-0.3,1-0.5,2-0.6,3h7.4c0.1,0.5,0.1,1,0.1,1.5c0,0.5,0,1-0.1,1.5h-7.4c0.1,1,0.3,2.1,0.6,3h6.2c-0.3,1.1-0.8,2.1-1.3,3h-3.5
			c0.5,0.9,1.1,1.7,1.7,2.4c2.8,3.2,6.8,5.2,11.4,5.2c8.4,0,15.2-6.8,15.2-15.2C-592.5,21.6-599.2,14.8-607.6,14.8z"/>
		<g>
			<path fill="#7684B7" d="M-581.1,1.2c3.3,0,6.1,2.7,6.1,6.1v45.5c0,3.3-2.7,6.1-6.1,6.1h-75.8c-3.3,0-6.1-2.7-6.1-6.1V7.2
				c0-3.3,2.7-6.1,6.1-6.1H-581.1 M-581.1-0.3h-75.8c-4.2,0-7.6,3.4-7.6,7.6v45.5c0,4.2,3.4,7.6,7.6,7.6h75.8c4.2,0,7.6-3.4,7.6-7.6
				V7.2C-573.5,3.1-576.9-0.3-581.1-0.3L-581.1-0.3z"/>
		</g>
	</g>
</g>
</svg>
