<?xml version="1.0" encoding="utf-8"?>
<!-- Generator: Adobe Illustrator 19.0.0, SVG Export Plug-In . SVG Version: 6.00 Build 0)  -->
<svg version="1.1" id="Calque_1" xmlns="http://www.w3.org/2000/svg" xmlns:xlink="http://www.w3.org/1999/xlink" x="0px" y="0px"
	 viewBox="-304 300.9 582 240" style="enable-background:new -304 300.9 582 240;" xml:space="preserve">
<style type="text/css">
	.st0{fill:url(#SVGID_1_);}
	.st1{fill:url(#SVGID_2_);}
</style>
<g>
	<g>
		<g>

				<linearGradient id="SVGID_1_" gradientUnits="userSpaceOnUse" x1="-4896.855" y1="853.2845" x2="-4532.0552" y2="853.2845" gradientTransform="matrix(0.2109 0 0 0.2109 746.3618 300.1273)">
				<stop  offset="0.2553" style="stop-color:#F43D2E"/>
				<stop  offset="0.3188" style="stop-color:#F4472F"/>
				<stop  offset="0.7812" style="stop-color:#F97D37"/>
				<stop  offset="1" style="stop-color:#FB8E3B"/>
			</linearGradient>
			<path class="st0" d="M-253.2,441.2l-20.3,20.3l-13.6,13.6h21.9l-10.7,32.7l32.7-10.8v21.9l17-17l16.5-16.5
				c-11.2-1.7-21.1-6.6-29.4-14.1C-246.5,462.3-251.5,452.3-253.2,441.2z"/>
		</g>
	</g>
	<g>
		<g>

				<linearGradient id="SVGID_2_" gradientUnits="userSpaceOnUse" x1="-4915.1353" y1="567.8649" x2="-3933.1909" y2="567.8649" gradientTransform="matrix(0.2109 0 0 0.2109 746.3618 300.1273)">
				<stop  offset="0.2553" style="stop-color:#F43D2E"/>
				<stop  offset="0.3188" style="stop-color:#F4472F"/>
				<stop  offset="0.7812" style="stop-color:#F97D37"/>
				<stop  offset="1" style="stop-color:#FB8E3B"/>
			</linearGradient>
			<path class="st1" d="M-159.7,489.6c-2.1-2.5-1.7-6.6,0.8-9.1l12-11.2l0,0c-8.7-5.4-13.6-14.1-13.6-24.8c0-19.4,17-29.4,33.9-29.4
				c5.4,0,10.3,0.8,14.5,2.5c26.5-38.9,31.8-86.8,26.9-100.9c-16.5-5.4-78.2,1.7-117,40.9c-2.1,2.1-4.5,4.5-6.6,7l-19-1.7
				c-13.2-1.7-24.8,4.5-32.3,15.7l-31,48.8l52.1,3.3c0.4,11.2,4.5,20.7,11.6,28.5c7.4,7.4,17,11.2,28.5,11.6l4.1,53.8l40.9-27.3
				C-155.2,494.9-157.2,492.5-159.7,489.6z M-161,361c9.1-9.1,23.6-9.1,32.7,0s9.1,23.6,0,32.7s-23.6,9.1-32.7,0
				C-170,384.1-170,369.6-161,361z"/>
		</g>
	</g>
</g>
<path d="M-139.4,475.1c7.9,9.1,24,9.5,24.8,1.7c0-4.5-6.6-6.6-12.8-7.9c-12-1.7-23.2-9.5-23.2-24c0-14.9,13.6-22.7,26.9-22.7
	c9.1,0,17.8,2.5,25.6,12l-12.4,9.5c-7.9-8.3-21.5-7.9-21.9,0.8c0,3.7,4.5,5.8,9.9,7c13.6,2.1,26.9,7,26.1,25.6
	c-0.8,14.5-15.7,22.7-29.4,22.7c-9.1,0-18.6-4.5-25.6-13.6L-139.4,475.1z"/>
<path d="M-69.2,499.1h-19v-75.3h19v28.5h21.9v-28.5h19v75.3h-19v-28.5h-21.9C-69.2,470.9-69.2,499.1-69.2,499.1z"/>
<path d="M2.8,499.1h-19v-75.3h19V499.1L2.8,499.1z"/>
<path d="M14.8,423.8h29.8c18.2,0,27.3,13.6,27.3,26.5c0,12.8-9.1,26.5-27.3,26.5H33.8v21.9h-19V423.8L14.8,423.8z M45,460.2
	c11.2,0,11.2-18.6,0-18.6H34.2v18.6H45z"/>
<g>
	<path d="M130.1,472l1.8,1l-6.7,10.9l11.7,13.3h-3.1l-9.8-10.9c-6.5,8.7-13.1,14.1-22.8,14.1c-11.4,0-20.7-7.4-20.7-19.3
		c0-10.3,8.5-17.8,17.5-23.1c-4.7-5.5-9.6-12.1-9.6-18.1c0-9.4,8-15.2,16.7-15.2c7.7,0,14.8,5.8,14.8,14c0,9.3-7.8,14.6-15.6,18.7
		l-2.4,1.5l21.5,23.6L130.1,472z M99.7,459.4c-7.6,4.5-16.4,11.6-16.4,21.4c0,10.5,7.1,17.3,18.9,17.3c8.7,0,15.7-6.8,20.2-13.4
		L99.7,459.4z M91.1,439.6c0,6,5.5,13,9.3,17.4c8.9-4.5,17.1-9.4,17.1-17.9c0-7.1-5.3-12.1-12.6-12.1
		C97.4,427,91.1,432.2,91.1,439.6z"/>
	<path d="M148.3,444.8c0-13.8,13.4-21,26.6-21c9.4,0,18.9,3.6,23.3,10.8l-2.3,1.7c-3.9-6.5-12.7-10-21.3-10
		c-11.7,0-23.6,6.1-23.6,18.4v35.2c0,12.3,12,18.3,23.6,18.3c8.5,0,17.2-3.1,21.3-9.4l2.3,1.2c-4.5,7.2-14.1,10.9-23.6,10.9
		c-13,0-26.3-7.1-26.3-21L148.3,444.8L148.3,444.8z"/>
	<path d="M210.1,445c0-14.1,13.9-21.2,27.9-21.2s28,7.1,28,21.2v34.7c0,14.1-14,21.3-28,21.3s-27.9-7.2-27.9-21.3V445z M212.8,479.6
		c0,12.5,12.5,18.7,25.2,18.7c12.6,0,25.3-6.1,25.3-18.7v-34.7c0-13.1-12.8-18.7-25.4-18.7c-12.6,0.1-25.1,5.7-25.1,18.7V479.6z"/>
</g>
</svg>
