<?xml version="1.0" encoding="UTF-8" standalone="no"?>
<svg width="32" height="32" viewBox="0 0 32 32" version="1.1" xmlns="http://www.w3.org/2000/svg" xmlns:xlink="http://www.w3.org/1999/xlink" preserveAspectRatio="xMidYMid">
  <g>
  	<path class="path1" fill="#f90" d="M0.93 23.59c0.091-0.146 0.239-0.156 0.44-0.027q6.875 3.989 14.96 3.988 5.391 0 10.643-2.008c0.091-0.036 0.226-0.091 0.399-0.165s0.297-0.129 0.371-0.165c0.275-0.11 0.489-0.055 0.646 0.165s0.104 0.421-0.151 0.605q-0.495 0.359-1.265 0.825-2.364 1.402-5.281 2.172t-5.691 0.77q-4.29 0-8.113-1.5c-2.641-1.043-4.912-2.468-6.867-4.236-0.091-0.073-0.146-0.167-0.146-0.258 0.002-0.062 0.022-0.12 0.056-0.167z"></path>
  	<path class="path2" fill="#221f1f" d="M24.58 17.512c-0.294-0.385-0.503-0.666-0.633-0.839s-0.261-0.459-0.399-0.852-0.206-0.831-0.206-1.306v-6.656c0-0.074-0.008-0.308-0.027-0.701s-0.047-0.652-0.082-0.77-0.091-0.336-0.165-0.646-0.156-0.55-0.247-0.715c-0.124-0.216-0.247-0.4-0.38-0.575-0.153-0.206-0.32-0.399-0.5-0.579q-1.761-1.622-4.895-1.622h-0.688q-2.446 0.136-4.276 1.32t-2.296 3.63c-0.016 0.057-0.026 0.124-0.027 0.192 0 0.256 0.156 0.421 0.469 0.496l3.162 0.385c0.294-0.055 0.476-0.267 0.55-0.633q0.194-0.879 0.853-1.375t1.566-0.577h0.219q1.238 0 1.815 0.825c0.256 0.404 0.385 1.191 0.385 2.365v0.469q-1.679 0.136-2.42 0.219-2.174 0.276-3.656 0.906-1.621 0.688-2.558 2.035t-0.935 3.246q0 2.392 1.361 3.699t3.479 1.306q1.375 0 2.31-0.275 1.485-0.413 3.025-2.090c0.074 0.091 0.201 0.269 0.385 0.536s0.316 0.446 0.399 0.536 0.219 0.239 0.413 0.44 0.418 0.413 0.674 0.633c0.311 0.129 0.578 0.11 0.797-0.055q0.194-0.165 2.475-2.145c0.146-0.11 0.219-0.239 0.219-0.385 0.001-0.129-0.054-0.275-0.164-0.44zM18.777 12.617c0 0.586-0.006 1.009-0.014 1.265s-0.063 0.591-0.165 1.004c-0.107 0.432-0.262 0.813-0.465 1.162q-0.62 1.163-1.776 1.464c-0.076 0.004-0.146 0.014-0.215 0.029-0.060 0.014-0.141 0.023-0.223 0.026q-0.908 0-1.446-0.646t-0.536-1.719q0-2.364 2.42-3.053 0.825-0.219 2.42-0.219v0.688z"></path>
  	<path class="path3" fill="#f90" d="M25.488 24.058c0.044-0.085 0.099-0.157 0.165-0.218q0.688-0.467 1.32-0.633c0.604-0.169 1.301-0.278 2.020-0.302 0.068-0.006 0.129-0.010 0.191-0.010 0.123 0 0.242 0.013 0.357 0.039q1.227 0.109 1.474 0.41c0.074 0.11 0.11 0.275 0.11 0.495v0.192q0 0.961-0.523 2.269t-1.457 2.104c-0.091 0.074-0.173 0.11-0.247 0.11-0 0-0 0-0 0-0.040 0-0.078-0.010-0.111-0.028-0.109-0.054-0.136-0.156-0.081-0.302q1.019-2.392 1.017-3.328c0-0.201-0.036-0.349-0.11-0.44-0.184-0.219-0.696-0.33-1.54-0.33-0.311 0-0.679 0.019-1.1 0.055-0.459 0.055-0.88 0.11-1.265 0.165-0.11 0-0.184-0.019-0.219-0.055s-0.047-0.074-0.027-0.11c0.002-0.031 0.012-0.060 0.027-0.085z"></path>
  </g>
</svg>
