<?xml version="1.0" encoding="UTF-8" standalone="no"?>
<svg width="1024" height="1024" viewBox="0 0 1024 1024" version="1.1" xmlns="http://www.w3.org/2000/svg" xmlns:xlink="http://www.w3.org/1999/xlink" preserveAspectRatio="xMidYMid">
  <g>
    <path class="path1" fill="#fae6c4" d="M542.72 160.427l242.347 416.427 238.933 416.427h-959.147l238.933-416.427z"></path>
    <path class="path2" fill="#2f8171" d="M197.973 791.893l54.613 95.573 54.613 92.16h-215.040l54.613-92.16z"></path>
    <path class="path3" fill="#7bc4b4" d="M887.467 791.893l54.613 95.573 51.2 92.16h-215.040l54.613-92.16z"></path>
    <path class="path4" fill="#ec929d" d="M542.72 791.893l54.613 95.573 54.613 92.16h-215.040l51.2-92.16z"></path>
    <path class="path5" fill="#932f45" d="M542.72 167.253c-3.413 0-3.413 0-6.827-3.413l-81.92-146.773c0-3.413 0-6.827 3.413-6.827s6.827 0 6.827 3.413l81.92 146.773c3.413 0 3.413 3.413-3.413 6.827 3.413 0 0 0 0 0z"></path>
    <path class="path6" fill="#932f45" d="M542.72 167.253c-3.413 0-6.827-3.413-6.827-6.827v-160.427c0-3.413 3.413-6.827 6.827-6.827s6.827 3.413 6.827 6.827v160.427c0 3.413-3.413 6.827-6.827 6.827z"></path>
    <path class="path7" fill="#932f45" d="M542.72 167.253c0 0-3.413 0 0 0-6.827-3.413-6.827-6.827-6.827-10.24l78.507-146.773c0-3.413 6.827-3.413 6.827-3.413 3.413 0 3.413 6.827 3.413 6.827l-78.507 146.773c0 3.413 0 6.827-3.413 6.827z"></path>
  </g>
</svg>
