<?xml version="1.0" encoding="UTF-8" standalone="no"?>
<svg width="1024" height="1024" viewBox="0 0 1024 1024" version="1.1" xmlns="http://www.w3.org/2000/svg" xmlns:xlink="http://www.w3.org/1999/xlink" preserveAspectRatio="xMidYMid">
  <g>
    <path class="path1" fill="#e53238" d="M238.933 433.493c-54.613 0-98.987 23.893-98.987 92.16 0 54.613 30.72 88.747 98.987 88.747 81.92 0 88.747-54.613 88.747-54.613h-40.96c0 0-10.24 30.72-51.2 30.72-34.133 0-58.027-23.893-58.027-54.613h153.6v-20.48c0-30.72-20.48-81.92-92.16-81.92v0zM235.52 460.8c30.72 0 54.613 20.48 54.613 51.2h-112.64c0-34.133 30.72-51.2 58.027-51.2z"></path>
    <path class="path2" fill="#0064d2" d="M331.093 368.64v211.627c0 13.653 0 30.72 0 30.72h37.547c0 0 0-13.653 0-23.893 0 0 20.48 30.72 71.68 30.72 54.613 0 92.16-37.547 92.16-92.16 0-51.2-34.133-88.747-92.16-88.747-54.613 0-68.267 27.307-68.267 27.307v-95.573h-40.96zM430.080 460.8c37.547 0 61.44 27.307 61.44 64.853s-27.307 64.853-58.027 64.853c-37.547 0-61.44-30.72-61.44-64.853-3.413-30.72 17.067-64.853 58.027-64.853z"></path>
    <path class="path3" fill="#f5af02" d="M624.64 433.493c-81.92 0-85.333 44.373-85.333 51.2h40.96c0 0 3.413-27.307 44.373-27.307 27.307 0 47.787 13.653 47.787 34.133v6.827h-47.787c-61.44 0-95.573 17.067-95.573 54.613s30.72 58.027 71.68 58.027c58.027 0 75.093-30.72 75.093-30.72 0 13.653 0 23.893 0 23.893h37.547c0 0 0-13.653 0-23.893v-85.333c-3.413-47.787-47.787-61.44-88.747-61.44v0zM669.013 529.067v10.24c0 13.653-10.24 51.2-61.44 51.2-27.307 0-40.96-13.653-40.96-30.72 0-30.72 40.96-30.72 102.4-30.72v0z"></path>
    <path class="path4" fill="#86b817" d="M686.080 440.32h44.373l64.853 129.707 64.853-129.707h40.96l-116.053 235.52h-44.373l34.133-64.853-88.747-170.667z"></path>
  </g>
</svg>
