<?xml version="1.0" encoding="UTF-8" standalone="no"?>
<svg width="1024" height="1024" viewBox="0 0 1024 1024" version="1.1" xmlns="http://www.w3.org/2000/svg" xmlns:xlink="http://www.w3.org/1999/xlink" preserveAspectRatio="xMidYMid">
  <g>
  	<linearGradient id="custom_gradient" gradientUnits="userSpaceOnUse" x1="0" y1="0" x2="700" y2="650">
  		<stop  offset="0" style="stop-color:#E53212"/>
  		<stop  offset="0.2553" style="stop-color:#E53212"/>
  		<stop  offset="0.2691" style="stop-color:#E53412"/>
  		<stop  offset="0.7653" style="stop-color:#EE7305"/>
  		<stop  offset="1" style="stop-color:#F18C00"/>
  	</linearGradient>
  	<path class="path1" fill="white" d="M1024 512c0 282.77-229.23 512-512 512s-512-229.23-512-512c0-282.77 229.23-512 512-512s512 229.23 512 512z"></path>
  	<path class="path2" fill="url(#custom_gradient)" d="M689.493 542.72c-6.827 6.827-13.653 13.653-20.48 20.48l6.827 61.44c3.413 37.547-13.653 75.093-44.373 95.573l-146.773 98.987-13.653-163.84c-34.133 0-64.853-13.653-85.333-34.133-23.893-23.893-34.133-51.2-34.133-85.333l-157.013-10.24 92.16-146.773c20.48-34.133 58.027-51.2 98.987-47.787l58.027 6.827c6.827-6.827 13.653-13.653 20.48-20.48 119.467-119.467 307.2-139.947 354.987-122.88 10.24 44.373-10.24 228.693-129.707 348.16zM679.253 320.853c-27.307-27.307-71.68-27.307-98.987 0s-27.307 71.68 0 98.987c27.307 27.307 71.68 27.307 98.987 0s27.307-71.68 0-98.987zM242.347 624.64l61.44-61.44c3.413 34.133 20.48 64.853 44.373 88.747s54.613 37.547 88.747 44.373l-102.4 102.4v-64.853l-98.987 34.133 34.133-98.987h-64.853l37.547-44.373z"></path>
  </g>
</svg>
