<?xml version="1.0" encoding="UTF-8" standalone="no"?>
<svg width="1024" height="1024" viewBox="0 0 32 32" version="1.1" xmlns="http://www.w3.org/2000/svg" xmlns:xlink="http://www.w3.org/1999/xlink" preserveAspectRatio="xMidYMid">
  <path class="path1" fill="#09f" d="M7.771 21.623c-0.549 0-1.143-0.229-1.554-0.64-0.869-0.869-0.869-2.24 0-3.109l4.16-4.16c0.869-0.869 2.24-0.869 3.109 0l2.377 2.377 7.543-7.543c0.869-0.869 2.24-0.869 3.109 0s0.869 2.24 0 3.109l-9.143 9.143c-0.869 0.869-2.24 0.869-3.109 0l-2.377-2.377-2.606 2.606c-0.366 0.366-0.96 0.594-1.509 0.594z"></path>
  <path class="path2" fill="#09f" d="M31.497 5.806c0 1.313-1.064 2.377-2.377 2.377s-2.377-1.064-2.377-2.377c0-1.313 1.064-2.377 2.377-2.377s2.377 1.064 2.377 2.377z"></path>
  <path class="path3" fill="#09f" d="M25.417 16.549c-0.274 5.851-5.166 10.514-11.063 10.514-6.126 0.046-11.109-4.937-11.109-11.063s4.983-11.109 11.063-11.109c2.469 0 4.754 0.823 6.583 2.194l1.92-1.92c-2.331-1.874-5.303-2.971-8.549-2.971-7.543 0-13.76 6.171-13.76 13.806s6.217 13.806 13.806 13.806 13.806-6.171 13.806-13.806c0-0.686-0.046-1.371-0.137-2.011l-2.56 2.56z"></path>
</svg>
