<?xml version="1.0" encoding="UTF-8" standalone="no"?>
<svg width="22" height="32" viewBox="0 0 22 32" version="1.1" xmlns="http://www.w3.org/2000/svg" xmlns:xlink="http://www.w3.org/1999/xlink" preserveAspectRatio="xMidYMid">
  <g>
    <path fill="#c8588a" class="path1 fill-color4" d="M9.245 25.277l-1.751-1.474c-0.156-0.092-0.343-0.147-0.543-0.147-0.389 0-0.729 0.205-0.919 0.513l-0.082 0.192s2.075 2.012 3.801 4.050c0.891 1.057 1.769 2.227 2.58 3.445l6.004-0.707c-0-0.021-0-0.046-0-0.071 0-1.352 0.149-2.67 0.431-3.937 0.089-0.422 0.153-1.045 0.153-1.682 0-0.29-0.013-0.578-0.039-0.861-0.108-1.355-0.536-2.73-1.040-2.908-0.822-0.283-1.060 0.054-0.93 0.717l0.054 0.796h-0.731s-0.054-2.094-1.114-2.069-0.7 1.848-0.7 1.848h-0.663s0.108-1.956-0.981-1.956-0.85 2.267-0.85 2.267h-0.635l-0.893-5.623c-0.036-0.322-0.308-0.571-0.637-0.571-0.054 0-0.106 0.007-0.156 0.019-0.732 0.078-0.653 1.209-0.653 1.209l1.236 8.287-0.867-0.026z"></path>
    <path fill="#71bf45" class="path2 fill-color2" d="M19.689 4.050l-4.875 0.493s-0.436-5.195-6.073-4.472c-4.654 0.595-4.713 5.583-4.713 5.583l-4.027 0.397 2.109 20.508 4.535-0.462c-0.402-0.407-0.822-0.791-1.261-1.153s-0.669-0.748 0.402-1.65c0.313-0.269 0.723-0.433 1.171-0.433 0.367 0 0.708 0.11 0.993 0.298l1.011 0.846-0.768-5.385s-0.462-1.944 1.321-2.31c0 0 1.451-0.207 1.658 1.207l0.527 3.157c0.283-0.255 0.66-0.41 1.073-0.41 0.474 0 0.899 0.205 1.193 0.531s1.262-1.189 2.47 0.242c0 0 1.536-1.261 2.624 0.949 0.369 0.82 0.587 1.777 0.592 2.784l2.267-0.228zM4.356 5.524s0.34-3.866 2.95-4.818c0 0-2.168 1.958-2.012 4.702zM5.583 5.368s0.235-4.535 3.239-4.883c2.899-0.34 4.387 3.605 4.387 4.18zM13.655 4.532c-1.046-3.713-3.554-4.311-3.554-4.311 3.554 0.025 4.362 4.229 4.362 4.229z"></path>
  </g>
</svg>
