<?xml version="1.0" encoding="UTF-8" standalone="no"?>
<svg width="32" height="32" viewBox="0 0 32 32" version="1.1" xmlns="http://www.w3.org/2000/svg" xmlns:xlink="http://www.w3.org/1999/xlink" preserveAspectRatio="xMidYMid">
  <g>
    <path class="path1" fill="#c02229" d="M24.254 10.719c0 4.556-3.698 8.254-8.254 8.254s-8.254-3.698-8.254-8.254 3.698-8.254 8.254-8.254c4.556 0.022 8.254 3.698 8.254 8.254z"></path>
    <path class="path2" fill="#fff" d="M17.629 11.885c0.924-0.506 1.497-1.497 1.497-2.575-0.002-1.652-1.341-2.992-2.993-2.993h-2.84v8.848h1.695v-2.861h0.858c0.066 0.11 2.069 2.862 2.069 2.862h2.069c-0.022-0-2.223-3.060-2.355-3.28zM14.966 7.989h1.167c0.726 0 1.299 0.594 1.299 1.321-0.001 0.717-0.582 1.297-1.299 1.299h-1.167v-2.619z"></path>
    <path class="path3" fill="#000" d="M26.297 20.882v-1.004h-9.98v1.004h4.339v1.481c0 0.386-0.013 0.594-0.026 0.875h-4.006v1.018h3.851c-0.283 1.159-1.185 2.988-4.031 3.992l-0.155 0.052v1.185l0.322-0.116c3-1.146 4.121-2.447 4.662-4.094 0.644 1.674 2.189 3.026 4.688 4.094l0.322 0.142v-1.223l-0.168-0.052c-2.344-0.76-3.747-2.537-4.134-3.979h3.955v-1.017h-4.188c-0.033-0.245-0.052-0.528-0.052-0.815 0-0.021 0-0.042 0-0.063l-0-1.478h4.599z"></path>
    <path class="path4" fill="#000" d="M5.935 19.826v1.107l2.034 1.108v-1.108l-2.035-1.108z"></path>
    <path class="path5" fill="#000" d="M15.451 25.208v-1.082l-2.035-1.108v1.108l1.996 1.082h-4.225v-0.387h1.662v-4.559h-1.764l0.232-0.773h-1.082l-0.232 0.773h-1.455v4.586h1.623v0.385h-4.185l1.982-1.082v-1.108l-2.022 1.108v2.073h3.4c-0.721 0.695-1.842 1.507-3.49 2.073l-0.155 0.052v1.043l0.309-0.116c1.777-0.644 3.168-1.469 4.16-2.473v2.73h1.016v-2.73c0.992 1.018 2.395 1.842 4.172 2.447l0.309 0.103v-1.043l-0.168-0.052c-1.648-0.554-2.769-1.365-3.503-2.047h3.439l0.013-1.004zM9.541 21.191h2.279v0.837h-2.279v-0.837zM9.541 23.895v-0.953h2.279v0.953h-2.279z"></path>
    <path class="path6" fill="#000" d="M15.451 20.933v-1.107l-0.348 0.193-1.688 0.914v1.107l2.035-1.108z"></path>
  </g>
</svg>
