<?xml version="1.0" encoding="UTF-8" standalone="no"?>
<svg width="1024" height="1024" viewBox="0 0 1024 1024" version="1.1" xmlns="http://www.w3.org/2000/svg" xmlns:xlink="http://www.w3.org/1999/xlink" preserveAspectRatio="xMidYMid">
  <g>
    <path class="path1" fill="#95c048" d="M870.4 194.56c0-3.413-6.827-6.827-10.24-6.827s-78.507-6.827-78.507-6.827-54.613-51.2-58.027-58.027c-6.827-6.827-17.067-3.413-20.48-3.413 0 0-10.24 3.413-30.72 10.24-17.067-51.2-47.787-98.987-105.813-98.987 0 0-3.413 0-3.413 0-13.653-20.48-34.133-30.72-51.2-30.72-129.707 0-187.733 160.427-208.213 242.347-47.787 13.653-85.333 27.307-88.747 27.307-27.307 10.24-27.307 10.24-34.133 34.133 0 20.48-75.093 583.68-75.093 583.68l566.613 105.813 307.2-64.853c0 0-105.813-730.453-109.227-733.867zM641.707 136.533c-13.653 3.413-30.72 10.24-47.787 13.653 0-3.413 0-6.827 0-10.24 0-30.72-3.413-58.027-10.24-78.507 27.307 6.827 44.373 37.547 58.027 75.093zM546.133 71.68c6.827 20.48 13.653 47.787 13.653 85.333 0 3.413 0 3.413 0 6.827-30.72 10.24-64.853 20.48-98.987 30.72 20.48-75.093 54.613-109.227 85.333-122.88zM508.587 34.133c6.827 0 10.24 3.413 17.067 6.827-40.96 20.48-85.333 68.267-102.4 163.84-27.307 10.24-54.613 17.067-78.507 23.893 20.48-75.093 71.68-194.56 163.84-194.56z"></path>
    <path class="path2" fill="#5f8f3e" d="M863.573 184.32c-3.413 0-78.507-6.827-78.507-6.827s-54.613-51.2-58.027-58.027c-3.413-3.413-6.827-3.413-6.827-3.413l-44.373 877.227 307.2-64.853c0 0-109.227-727.040-109.227-733.867-3.413-6.827-6.827-10.24-10.24-10.24z"></path>
    <path class="path3" fill="white" d="M570.027 354.987l-37.547 112.64c0 0-34.133-17.067-75.093-17.067-58.027 0-61.44 37.547-61.44 47.787 0 51.2 133.12 71.68 133.12 191.147 0 95.573-61.44 157.013-139.947 157.013-98.987 0-146.773-61.44-146.773-61.44l27.307-85.333c0 0 51.2 44.373 95.573 44.373 27.307 0 40.96-20.48 40.96-37.547 0-68.267-109.227-71.68-109.227-180.907 0-92.16 64.853-180.907 201.387-180.907 44.373-3.413 71.68 10.24 71.68 10.24z"></path>
  </g>
</svg>
