<?xml version="1.0" encoding="UTF-8" standalone="no"?>
<svg width="64" height="64" viewBox="0 0 64 64" version="1.1" xmlns="http://www.w3.org/2000/svg" xmlns:xlink="http://www.w3.org/1999/xlink" preserveAspectRatio="xMidYMid">
  <path fill="#6772e5" style="fill: var(--color1, #6772e5)" d="M8.876 4.624h46.249c2.348 0 4.252 1.904 4.252 4.252v46.249c0 2.348-1.904 4.252-4.252 4.252h-46.249c-2.348 0-4.252-1.904-4.252-4.252v-46.249c0-2.348 1.904-4.252 4.252-4.252z"></path>
  <path fill="#fff" style="fill: var(--color2, #fff)" d="M29.593 25.135c0-1.453 1.211-2.017 3.161-2.017 3.398 0.077 6.574 0.954 9.37 2.45l-0.112-0.055v-8.766c-2.666-1.079-5.758-1.704-8.996-1.704-0.089 0-0.178 0.001-0.267 0.001l0.014-0c-7.55 0-12.584 3.943-12.584 10.533 0 10.305 14.151 8.631 14.151 13.075 0 1.72-1.495 2.276-3.571 2.276-3.083 0-7.062-1.273-10.186-2.972v8.887c2.999 1.328 6.497 2.105 10.175 2.113h0.003c7.739 0 13.072-3.824 13.072-10.524 0-11.099-14.228-9.108-14.228-13.296z"></path>
</svg>