<?xml version="1.0" encoding="UTF-8" standalone="no"?>
<svg width="32" height="32" viewBox="0 0 32 32" version="1.1" xmlns="http://www.w3.org/2000/svg" xmlns:xlink="http://www.w3.org/1999/xlink" preserveAspectRatio="xMidYMid">
  <path fill="#9c5c8f" style="fill: var(--color1, #9c5c8f)" d="M1.577 8.942c0.421-0.969 1.362-1.639 2.462-1.656l0.002-0q11.908-0.004 23.816-0.002c0.015-0 0.034-0 0.052-0 1.509 0 2.731 1.223 2.731 2.731 0 0.019-0 0.038-0.001 0.057l0-0.003c-0.003 3.043 0.006 6.085-0.004 9.128-0.048 1.418-1.169 2.559-2.574 2.639l-0.007 0c-2.895 0.012-5.791 0.001-8.687 0.006 0.389 0.958 0.783 1.916 1.172 2.875-1.725-0.95-3.432-1.933-5.166-2.863-3.808-0.034-7.62 0.003-11.429-0.019-1.41-0.082-2.528-1.221-2.576-2.632l-0-0.005c-0.012-2.979 0-5.958-0.006-8.938-0.003-0.053-0.005-0.116-0.005-0.179 0-0.411 0.081-0.802 0.228-1.16l-0.007 0.020z"></path>
    <path fill="#fff" style="fill: var(--color2, #fff)" d="M13.346 9.164c0.44-0.468 1.274-0.316 1.599 0.213 0.091 0.148 0.145 0.327 0.145 0.518 0 0.155-0.035 0.301-0.098 0.432l0.003-0.006c-0.612 1.203-0.867 2.544-1.102 3.861-0.278 1.718-0.51 3.458-0.42 5.202 0.025 0.445-0.19 0.984-0.667 1.088-0.451 0.101-0.862-0.195-1.146-0.514-1.296-1.394-2.030-3.201-2.559-5.003-0.535 1.055-1.072 2.111-1.59 3.175-0.363 0.719-0.746 1.453-1.326 2.024-0.245 0.243-0.659 0.463-0.975 0.213-0.475-0.416-0.592-1.078-0.794-1.648-0.765-2.64-1.199-5.36-1.644-8.068-0.102-0.451 0.087-0.992 0.538-1.172 0.364-0.136 0.83-0.156 1.14 0.112 0.216 0.193 0.276 0.492 0.316 0.764 0.312 2.096 0.684 4.186 1.19 6.245q1.301-2.466 2.594-4.937c0.12-0.257 0.296-0.47 0.514-0.63l0.005-0.003c0.131-0.087 0.292-0.138 0.464-0.138 0.227 0 0.433 0.089 0.585 0.234l-0-0c0.222 0.232 0.296 0.556 0.357 0.861 0.279 1.524 0.665 2.865 1.168 4.148l-0.052-0.151c0.219-1.944 0.487-3.911 1.197-5.746 0.16-0.37 0.302-0.761 0.561-1.075zM18.221 10.205c0.121-0.017 0.26-0.027 0.402-0.027 0.855 0 1.627 0.358 2.174 0.931l0.001 0.001c0.489 0.576 0.816 1.302 0.906 2.101l0.002 0.018c0.031 0.24 0.049 0.518 0.049 0.8 0 1.118-0.282 2.171-0.779 3.090l0.017-0.034c-0.358 0.666-0.827 1.305-1.487 1.697-0.435 0.253-0.958 0.402-1.516 0.402-0.628 0-1.211-0.189-1.697-0.514l0.011 0.007c-0.747-0.512-1.167-1.384-1.338-2.253-0.344-1.967 0.244-4.159 1.733-5.532 0.412-0.361 0.933-0.608 1.507-0.685l0.015-0.002zM18.415 12.228c-0.448 0.149-0.732 0.56-0.973 0.942-0.604 0.973-0.779 2.256-0.293 3.314 0.128 0.278 0.333 0.571 0.657 0.63 0.344 0.057 0.664-0.14 0.914-0.354 0.552-0.473 0.827-1.185 0.96-1.883 0.15-0.795 0.073-1.676-0.394-2.357-0.14-0.201-0.37-0.331-0.63-0.331-0.087 0-0.17 0.014-0.247 0.041l0.005-0.002zM25.71 10.207c0.912-0.113 1.902 0.168 2.541 0.849 0.538 0.609 0.892 1.392 0.967 2.255l0.001 0.015c0.024 0.212 0.038 0.457 0.038 0.705 0 1.103-0.275 2.142-0.759 3.052l0.017-0.035c-0.363 0.685-0.842 1.343-1.522 1.742-0.432 0.248-0.95 0.393-1.502 0.393-0.582 0-1.126-0.162-1.59-0.444l0.014 0.008c-0.622-0.375-1.036-1.014-1.274-1.686-0.17-0.539-0.269-1.159-0.269-1.802 0-1.636 0.636-3.123 1.675-4.228l-0.003 0.003c0.437-0.435 1.010-0.733 1.65-0.825l0.016-0.002zM25.907 12.231c-0.49 0.175-0.784 0.642-1.038 1.067-0.551 0.972-0.687 2.223-0.188 3.244 0.134 0.282 0.373 0.567 0.71 0.582 0.367 0.013 0.683-0.219 0.937-0.459 0.554-0.546 0.808-1.327 0.896-2.085 0.022-0.137 0.035-0.294 0.035-0.454 0-0.599-0.177-1.157-0.482-1.625l0.007 0.011c-0.14-0.197-0.367-0.324-0.624-0.324-0.090 0-0.177 0.016-0.258 0.045l0.005-0.002z"></path>

</svg>